<svg id="Layer_1" data-name="Layer 1" xmlns="http://www.w3.org/2000/svg" viewBox="0 0 1156.23 236.56"><defs><style>.cls-1{fill:#eff0f0;}.cls-2{fill:#009df1;}.cls-3{fill:#fff;}</style></defs><path class="cls-1" d="M27.17,227.49A21,21,0,0,1,8.93,196.06l46.15-80.95A21,21,0,0,1,91.6,135.93L45.45,216.88A21,21,0,0,1,27.17,227.49Z"/><path class="cls-1" d="M108.17,85.4A21,21,0,0,1,89.93,54l13.4-23.51a21,21,0,0,1,36.52,20.82l-13.4,23.51A21,21,0,0,1,108.17,85.4Z"/><path class="cls-1" d="M120.51,232.47a21,21,0,0,1-18-31.91L163.42,100.1a21,21,0,1,1,36,21.79L138.5,222.34A21,21,0,0,1,120.51,232.47Z"/><circle class="cls-2" cx="217.74" cy="211.09" r="22.88"/><path class="cls-3" d="M441.64,99.14H408.12V4.59h33.79q14.26,0,24.56,5.65a38.67,38.67,0,0,1,15.86,16.23q5.57,10.58,5.56,25.3t-5.56,25.39a38.6,38.6,0,0,1-15.93,16.3Q456,99.13,441.64,99.14ZM428.11,82H440.8q8.86,0,14.94-3.16A20.23,20.23,0,0,0,464.88,69Q468,62.35,468,51.77t-3.07-17.13a20.15,20.15,0,0,0-9.12-9.78q-6-3.15-14.91-3.14H428.11Z"/><path class="cls-3" d="M515.66,99.14V4.59h63.71V21.07H535.65V43.6h40.44V60.08H535.65V82.65h43.91V99.14Z"/><path class="cls-3" d="M608.3,99.14V4.59h20V82.65h40.53V99.14Z"/><path class="cls-3" d="M679.7,21.07V4.59h77.64V21.07H728.4V99.14H708.64V21.07Z"/><path class="cls-3" d="M787.84,99.14H766.42L799.06,4.59h25.76l32.59,94.55H836L812.31,26.2h-.74Z"/><path class="cls-3" d="M410.47,136h12.61l29.66,72.44h1L483.43,136H496v87.27h-9.89V157h-.85L458,223.31h-9.55L421.21,157h-.85v66.31h-9.89Z"/><path class="cls-3" d="M526.75,223.31H515.67L547.72,136h10.91l32,87.27H579.59l-26.08-73.46h-.68Zm4.09-34.09H575.5v9.38H530.84Z"/><path class="cls-3" d="M610.31,223.31V136H639.8q10.23,0,16.79,3.47A22.42,22.42,0,0,1,666.3,149a29.23,29.23,0,0,1,3.16,13.76,28.76,28.76,0,0,1-3.16,13.68,22,22,0,0,1-9.67,9.35q-6.52,3.39-16.66,3.39H616.11v-9.54h23.52a26.4,26.4,0,0,0,11.27-2.05,13,13,0,0,0,6.22-5.82,19.51,19.51,0,0,0,1.94-9,20.2,20.2,0,0,0-2-9.16,13.49,13.49,0,0,0-6.27-6.07c-2.86-1.44-6.66-2.16-11.37-2.16H620.88v77.9Zm41.08-39.2,21.48,39.2H660.59l-21.13-39.2Z"/><path class="cls-3" d="M693,223.31V136h10.57v43.29h1L743.81,136h13.8L721,175.41l36.64,47.9H744.83l-30.34-40.57L703.58,195v28.29Z"/><path class="cls-3" d="M777.25,223.31V136h52.67v9.37h-42.1V174.9h39.37v9.38H787.82v29.66H830.6v9.37Z"/><path class="cls-3" d="M850.24,145.41V136h65.45v9.37H888.25v77.9H877.68v-77.9Z"/><path class="cls-3" d="M948.62,136v87.27H938.06V136Z"/><path class="cls-3" d="M1045,136v87.27h-10.22l-47.56-68.52h-.85v68.52H975.76V136H986l47.72,68.69h.86V136Z"/><path class="cls-3" d="M1131.76,163.31a31.58,31.58,0,0,0-3.69-7.73,24.44,24.44,0,0,0-5.41-5.86,23,23,0,0,0-7.09-3.71,28.31,28.31,0,0,0-8.7-1.28,25.88,25.88,0,0,0-14.1,4,27.62,27.62,0,0,0-10.1,11.8q-3.75,7.8-3.75,19.14t3.79,19.13a27.62,27.62,0,0,0,10.27,11.8,27.16,27.16,0,0,0,14.57,4,26.51,26.51,0,0,0,13.23-3.22,22.52,22.52,0,0,0,9-9.12,28.56,28.56,0,0,0,3.22-13.91l3.24.68h-26.25v-9.37h33.24v9.37a37,37,0,0,1-4.58,18.75A31.86,31.86,0,0,1,1126,220.14a40.89,40.89,0,0,1-38.77-1.09,36.59,36.59,0,0,1-13.64-15.51q-4.87-10.06-4.88-23.86a58.28,58.28,0,0,1,2.79-18.65,41,41,0,0,1,7.91-14.12,34.51,34.51,0,0,1,12.1-8.95,37.31,37.31,0,0,1,15.38-3.11,39.19,39.19,0,0,1,12.89,2.06,35.66,35.66,0,0,1,10.7,5.84,33.71,33.71,0,0,1,7.86,9,34.66,34.66,0,0,1,4.35,11.57Z"/></svg>